<?xml version="1.0" encoding="iso-8859-1"?>
<!-- Generator: Adobe Illustrator 21.0.0, SVG Export Plug-In . SVG Version: 6.00 Build 0)  -->
<svg version="1.1" id="diving-scuba-ocean-sea" xmlns="http://www.w3.org/2000/svg" xmlns:xlink="http://www.w3.org/1999/xlink"
	 x="0px" y="0px" viewBox="0 0 64 64" style="enable-background:new 0 0 64 64;" xml:space="preserve">
<path d="M59,10h-6c-0.553,0-1,0.447-1,1v31c0,6.617-5.383,12-12,12h-8.54c-0.887-0.988-2.094-1.679-3.46-1.91v-4.786
	C29.992,50.139,33.28,52,37,52c6.065,0,11-4.935,11-11V31v-6c0-0.553-0.447-1-1-1H1c-0.553,0-1,0.447-1,1v6v10
	c0,6.065,4.935,11,11,11c2.637,0,5.059-0.934,6.956-2.487L17.245,52H17c-3.309,0-6,2.691-6,6s2.691,6,6,6h10
	c1.771,0,3.36-0.776,4.46-2H40c11.028,0,20-8.972,20-20V11C60,10.447,59.553,10,59,10z M22,32h4v6h-4V32z M46,41
	c0,4.963-4.037,9-9,9s-9-4.037-9-9v-2v-7h18V41z M2,26h44v4H27h-6H2V26z M11,50c-4.963,0-9-4.037-9-9v-9h18v7v2
	C20,45.963,15.963,50,11,50z M22.754,40H26v1v11h-6.674L22.754,40z M27,62H17c-2.206,0-4-1.794-4-4s1.794-4,4-4h1h9
	c2.206,0,4,1.794,4,4S29.206,62,27,62z M58,42c0,9.925-8.075,18-18,18h-7.35c0.223-0.627,0.35-1.298,0.35-2s-0.128-1.373-0.35-2H40
	c7.72,0,14-6.28,14-14V12h4V42z"/>
<rect x="3.964" y="39.5" transform="matrix(0.7071 -0.7071 0.7071 0.7071 -26.4411 17.1655)" width="7.071" height="2"/>
<rect x="11.586" y="34" transform="matrix(0.7071 -0.7071 0.7071 0.7071 -20.9411 19.4437)" width="2.828" height="2"/>
<rect x="5.032" y="40.25" transform="matrix(0.7071 -0.7071 0.7071 0.7071 -25.7267 20.3904)" width="13.435" height="2"/>
<rect x="29.24" y="37.75" transform="matrix(0.7071 -0.7071 0.7071 0.7071 -17.0759 36.2751)" width="12.021" height="2"/>
<rect x="32.275" y="43.25" transform="matrix(0.7071 -0.7071 0.7071 0.7071 -21.1114 37.5325)" width="4.95" height="2"/>
<rect x="37.172" y="38" transform="matrix(0.7071 -0.7071 0.7071 0.7071 -15.8614 39.7071)" width="5.657" height="2"/>
<path d="M43,11c2.757,0,5-2.243,5-5s-2.243-5-5-5s-5,2.243-5,5S40.243,11,43,11z M43,3c1.654,0,3,1.346,3,3s-1.346,3-3,3
	s-3-1.346-3-3S41.346,3,43,3z"/>
<path d="M64,4c0-2.206-1.794-4-4-4s-4,1.794-4,4s1.794,4,4,4S64,6.206,64,4z M60,6c-1.103,0-2-0.897-2-2s0.897-2,2-2s2,0.897,2,2
	S61.103,6,60,6z"/>
<path d="M40,18c0,1.654,1.346,3,3,3s3-1.346,3-3s-1.346-3-3-3S40,16.346,40,18z M44,18c0,0.552-0.448,1-1,1s-1-0.448-1-1
	s0.448-1,1-1S44,17.448,44,18z"/>
<path d="M31,16c2.206,0,4-1.794,4-4s-1.794-4-4-4s-4,1.794-4,4S28.794,16,31,16z M31,10c1.103,0,2,0.897,2,2s-0.897,2-2,2
	s-2-0.897-2-2S29.897,10,31,10z"/>
<rect x="62" y="58" width="2" height="2"/>
<rect x="58" y="58" width="2" height="2"/>
<rect x="62" y="62" width="2" height="2"/>
<rect x="58" y="62" width="2" height="2"/>
<rect x="54" y="62" width="2" height="2"/>
<rect x="20" y="12" width="2" height="4"/>
<rect x="20" y="18" width="2" height="4"/>
<rect x="22" y="16" width="4" height="2"/>
<rect x="16" y="16" width="4" height="2"/>
<rect y="12" width="2" height="2"/>
<rect x="4" y="12" width="2" height="2"/>
<rect y="8" width="2" height="2"/>
<rect x="4" y="8" width="2" height="2"/>
<rect x="8" y="8" width="2" height="2"/>
<rect y="4" width="2" height="2"/>
<rect x="4" y="4" width="2" height="2"/>
<rect x="8" y="4" width="2" height="2"/>
<rect x="8" y="12" width="2" height="2"/>
<rect width="2" height="2"/>
<rect x="4" width="2" height="2"/>
<rect x="8" width="2" height="2"/>
<rect x="12" y="4" width="2" height="2"/>
<rect x="12" y="8" width="2" height="2"/>
<rect x="16" y="4" width="2" height="2"/>
<rect x="12" width="2" height="2"/>
<rect x="16" width="2" height="2"/>
<rect x="25" y="2" width="2" height="2"/>
<rect x="34" y="18" width="2" height="2"/>
</svg>
